<?xml version="1.0" encoding="UTF-8" standalone="no"?>
<svg
   xmlns:dc="http://purl.org/dc/elements/1.1/"
   xmlns:cc="http://creativecommons.org/ns#"
   xmlns:rdf="http://www.w3.org/1999/02/22-rdf-syntax-ns#"
   xmlns:svg="http://www.w3.org/2000/svg"
   xmlns="http://www.w3.org/2000/svg"
   xmlns:sodipodi="http://sodipodi.sourceforge.net/DTD/sodipodi-0.dtd"
   xmlns:inkscape="http://www.inkscape.org/namespaces/inkscape"
   width="351.94687mm"
   height="173.53577mm"
   viewBox="0 0 351.94686 173.53577"
   version="1.1"
   id="svg8"
   inkscape:version="1.0.1 (3bc2e813f5, 2020-09-07)"
   sodipodi:docname="logo_internet.svg"
   inkscape:export-filename="/home/gustave/Images/mmmmm/png/logo_l'huilier.png"
   inkscape:export-xdpi="96"
   inkscape:export-ydpi="96">
  <style
     id="style1225" />
  <style
     id="style3" />
  <defs
     id="defs2">
    <rect
       x="218.52119"
       y="59.621384"
       width="56.746731"
       height="52.566982"
       id="rect857" />
    <rect
       x="218.52119"
       y="59.621384"
       width="95.55101"
       height="171.31236"
       id="rect851" />
    <rect
       x="218.52119"
       y="59.621384"
       width="0"
       height="173.53577"
       id="rect845" />
    <inkscape:path-effect
       effect="bspline"
       id="path-effect207"
       is_visible="true"
       weight="33.333333"
       steps="2"
       helper_size="0"
       apply_no_weight="true"
       apply_with_weight="true"
       only_selected="false"
       lpeversion="0" />
    <inkscape:path-effect
       effect="bspline"
       id="path-effect207-3"
       is_visible="true"
       weight="33.333333"
       steps="2"
       helper_size="0"
       apply_no_weight="true"
       apply_with_weight="true"
       only_selected="false"
       lpeversion="0" />
    <inkscape:path-effect
       only_selected="false"
       apply_with_weight="true"
       apply_no_weight="true"
       helper_size="0"
       steps="2"
       weight="33.333333"
       is_visible="true"
       id="path-effect207-3-3"
       effect="bspline"
       lpeversion="0" />
  </defs>
  <sodipodi:namedview
     id="base"
     pagecolor="#ffffff"
     bordercolor="#666666"
     borderopacity="1.0"
     inkscape:pageopacity="0.0"
     inkscape:pageshadow="2"
     inkscape:zoom="0.70710678"
     inkscape:cx="658.45234"
     inkscape:cy="354.85481"
     inkscape:document-units="mm"
     inkscape:current-layer="layer2"
     showgrid="false"
     inkscape:snap-intersection-paths="true"
     inkscape:snap-smooth-nodes="true"
     inkscape:snap-midpoints="true"
     inkscape:snap-object-midpoints="true"
     inkscape:snap-center="true"
     inkscape:snap-text-baseline="true"
     inkscape:object-paths="true"
     inkscape:window-width="1596"
     inkscape:window-height="898"
     inkscape:window-x="143"
     inkscape:window-y="96"
     inkscape:window-maximized="0"
     fit-margin-top="0"
     fit-margin-left="0"
     fit-margin-right="0"
     fit-margin-bottom="0"
     inkscape:snap-nodes="true"
     inkscape:snap-others="true"
     inkscape:pagecheckerboard="false"
     inkscape:document-rotation="0"
     inkscape:snap-global="true"
     lock-margins="true"
     showguides="false" />
  <metadata
     id="metadata5">
    <rdf:RDF>
      <cc:Work
         rdf:about="">
        <dc:format>image/svg+xml</dc:format>
        <dc:type
           rdf:resource="http://purl.org/dc/dcmitype/StillImage" />
        <dc:title></dc:title>
      </cc:Work>
    </rdf:RDF>
  </metadata>
  <g
     inkscape:groupmode="layer"
     id="layer3"
     inkscape:label="Calque 1"
     style="display:inline"
     transform="translate(-6.189343,-59.621384)" />
  <g
     inkscape:groupmode="layer"
     id="layer2"
     inkscape:label="Calque 2"
     transform="translate(-6.189343,-59.621384)">
    <g
       style="display:inline;opacity:1"
       transform="translate(0.09172665,-1.0736017)"
       inkscape:label="Calque 2"
       id="layer2-3">
      <path
         sodipodi:nodetypes="ccccccccccccccccccccccccccccccccccc"
         inkscape:original-d="m 61.055485,103.08546 c 6.193988,3.74348 12.387778,7.48726 18.58136,11.23135 4.17274,2.04488 8.345085,4.08997 12.517307,6.13539 4.51006,2.1539 9.020088,4.30793 13.529978,6.46205 3.76962,0.94227 7.67381,1.88466 11.51055,2.82714 5.72159,0.94227 11.4433,1.88467 17.16481,2.82715 6.23596,-1.06859 12.47203,-2.13699 18.70788,-3.20513 3.12088,-2.83611 6.24116,-5.67165 9.36162,-8.50733 1.00519,-1.99637 2.01026,-3.99274 3.01508,-5.98891 -0.26433,-2.06621 -0.52888,-4.13174 -0.79375,-6.19745 -1.32332,-1.50889 -2.64662,-3.0172 -3.97046,-4.52555 -2.46681,-0.49029 -4.93331,-0.9802 -7.40075,-1.46998 -2.70188,0.48499 -5.40313,0.97007 -8.10558,1.45559 -2.1749,1.81741 -4.34937,3.6345 -6.52469,5.45235 -1.72912,2.1377 -3.4581,4.27516 -5.18776,6.41341 -3.20082,4.51476 -6.40148,9.02919 -9.60242,13.54391 -1.95203,4.03879 -3.90405,8.07746 -5.85623,12.11635 -1.81741,3.76954 -3.63479,7.67358 -5.45235,11.51052 -3.23102,4.17343 -6.46197,8.34671 -9.69311,12.52021 -3.904177,3.23101 -7.808249,6.46195 -11.712526,9.69307 -4.375381,2.96175 -8.750626,5.92344 -13.126084,8.88531 -5.519712,1.00962 -11.039233,2.01929 -16.558997,3.02908 -4.644591,-0.74055 -9.289091,-1.48098 -13.933786,-2.22132 -1.817381,-2.75998 -3.634799,-5.51977 -5.452348,-8.2795 2.154095,-3.76959 4.308128,-7.53915 6.462043,-11.30858 4.173373,-2.15404 8.346909,-4.03888 12.520213,-6.05817 5.214155,-0.0893 10.563923,-0.18062 15.845734,-0.27053 4.546208,0.56112 9.091715,1.12246 13.637407,1.68411 3.096452,0.74033 6.192933,1.48078 9.289249,2.22132 4.240735,1.54807 8.481585,3.0963 12.722205,4.6446 3.76957,1.81733 7.53915,3.6348 11.30858,5.45235 2.82722,1.81733 5.65439,3.6348 8.48144,5.45235 3.2984,1.14421 6.59677,2.28854 9.89501,3.43296 3.43299,0.13452 6.86602,0.26915 10.29888,0.40388 2.35598,-0.74052 4.71201,-1.48098 7.06786,-2.22133"
         inkscape:path-effect="#path-effect207-3-3"
         inkscape:connector-curvature="0"
         id="path205-6-7"
         d="m 61.055485,103.08546 c 6.1938,3.74379 12.387587,7.48758 17.570765,10.38206 5.183177,2.89449 9.355524,4.93958 13.696714,7.03914 4.34119,2.09956 8.851216,4.25359 12.992906,5.79399 4.14168,1.5404 8.04204,2.49838 12.82121,3.44075 4.77917,0.94237 10.50088,1.88477 16.47964,1.82176 5.97877,-0.063 12.21484,-1.1314 16.89319,-3.08362 4.67835,-1.95223 7.79863,-4.78777 9.8614,-7.20382 2.06277,-2.41606 3.06783,-4.41244 3.43798,-6.44358 0.37015,-2.03114 0.1056,-4.09667 -0.68848,-5.88387 -0.79409,-1.78719 -2.11739,-3.2955 -4.01261,-4.29479 -1.89521,-0.99929 -4.36171,-1.4892 -6.94632,-1.49165 -2.58461,-0.002 -5.28586,0.48264 -7.72455,1.63401 -2.43868,1.15138 -4.61315,2.96847 -6.56539,4.94622 -1.95225,1.97775 -3.68123,4.11521 -6.14648,7.44171 -2.46525,3.3265 -5.66591,7.84092 -8.24239,12.11769 -2.57648,4.27676 -4.5285,8.31543 -6.40027,12.22581 -1.87178,3.91039 -3.71521,7.80209 -6.23949,11.80727 -2.52427,4.00519 -5.75522,8.17848 -9.32286,11.88074 -3.56765,3.70227 -7.471723,6.93321 -11.611547,10.02965 -4.139825,3.09644 -8.515069,6.05813 -13.462655,8.04391 -4.947586,1.98577 -10.467107,2.99544 -15.5493,3.13007 -5.082193,0.13464 -9.726694,-0.60579 -12.957781,-2.35597 -3.231086,-1.75017 -5.048506,-4.50996 -4.880191,-7.77467 0.168314,-3.26471 2.322348,-7.03427 5.512408,-9.94144 3.19006,-2.90716 7.310817,-4.90108 12.004539,-5.95525 4.693722,-1.05418 10.04349,-1.14552 14.957479,-0.90989 4.913988,0.23562 9.459496,0.79695 13.280573,1.44785 3.821076,0.6509 6.917556,1.39136 10.586075,2.53566 3.66852,1.1443 7.90936,2.69255 11.91445,4.37535 4.00509,1.68281 7.77467,3.50029 11.07299,5.31773 3.29831,1.81744 6.12549,3.6349 9.18823,5.11579 3.06274,1.48088 6.36111,2.62521 9.72674,3.26467 3.36564,0.63947 6.79867,0.7741 9.6931,0.47118 2.89443,-0.30292 5.25046,-1.04338 7.60629,-1.78379"
         style="display:inline;fill:none;stroke:#000000;stroke-width:7.933;stroke-linecap:round;stroke-linejoin:bevel;stroke-miterlimit:4;stroke-dasharray:none;stroke-opacity:1" />
      <path
         id="path4756-5"
         style="fill:none;stroke:#f70a00;stroke-width:10.355;stroke-linecap:butt;stroke-linejoin:round;stroke-miterlimit:4;stroke-dasharray:none;stroke-opacity:1"
         d="M 49.619964,82.495818 C 90.654642,57.083187 148.13149,64.07564 179.06742,98.243988 210.00335,132.41233 203.07996,181.25554 163.4748,208.24705"
         sodipodi:nodetypes="csc" />
      <path
         id="path4758-3"
         style="fill:none;stroke:#0000fe;stroke-width:10.355;stroke-linecap:butt;stroke-linejoin:round;stroke-miterlimit:4;stroke-dasharray:none;stroke-opacity:1"
         d="M 163.94415,207.92506 C 137.5044,226.18355 101.4309,230.80433 69.801654,219.98409 38.172408,209.16385 16.000492,184.61755 11.938691,155.9246 7.8768879,127.23165 22.568977,98.939737 50.28124,82.090031"
         sodipodi:nodetypes="cssc" />
    </g>
    <path
       style="opacity:0.997;fill:none;stroke:#000000;stroke-width:7;stroke-linecap:butt;stroke-linejoin:round;stroke-miterlimit:4;stroke-dasharray:none;stroke-opacity:1"
       d="M 218.52119,59.621384 V 233.15715"
       id="path841" />
    <g
       id="g1080"
       transform="translate(-1.1176666,-4.7332374)">
      <path
         d="m 236.1771,68.058788 h -5.95491 v 0.705557 c 0.56446,0 1.04421,0.423334 2.39891,2.031999 v 13.377341 c 0,1.608666 -0.42333,2.003778 -2.48357,2.257777 v 0.705558 h 6.40645 v -0.705558 c -2.17312,-0.253999 -2.68112,-0.790224 -2.68112,-2.794002 V 72.292126 l 12.61536,15.352894 h 0.79021 V 71.022123 c 0,-1.608666 0.36688,-1.975557 2.20133,-2.257778 v -0.705557 h -6.06778 v 0.705557 c 2.08845,0.197544 2.62466,0.790225 2.62466,2.794002 v 8.607778 z"
         style="font-style:normal;font-variant:normal;font-weight:bold;font-stretch:normal;font-size:8.19334px;line-height:1.25;font-family:FreeSerif;-inkscape-font-specification:'FreeSerif Bold';letter-spacing:0px;word-spacing:0px;white-space:pre;opacity:0.997;fill:#000000;fill-opacity:1;stroke:none;stroke-width:1"
         id="path1012" />
      <path
         d="m 254.18281,75.735237 c 0,-0.592667 0.79025,-1.044224 1.77804,-1.044224 1.63687,0 2.37066,0.762003 2.37066,2.483556 v 2.060224 c -3.27379,0.987778 -7.59178,2.116669 -7.59178,5.305779 0,1.721557 1.32642,2.991557 3.13266,2.991557 1.60867,0 2.90688,-0.564446 4.45912,-1.975557 0.31035,1.439336 0.93134,1.975557 2.31421,1.975557 1.21355,0 2.08846,-0.451555 3.16088,-1.608666 l -0.42334,-0.592667 -0.2821,0.282211 c -0.0847,0.08467 -0.16947,0.112877 -0.31036,0.112877 -0.39508,0 -0.59266,-0.254 -0.59266,-0.705557 v -7.366003 c 0,-2.370666 -2.14488,-3.866444 -5.588,-3.866444 -3.18912,0 -5.334,1.439333 -5.334,3.555998 0,1.157112 0.67734,1.862669 1.83446,1.862669 1.12888,0 1.91909,-0.677333 1.91909,-1.63689 0,-0.846666 -0.84667,-1.439333 -0.84667,-1.834445 z m 4.12046,8.579556 c -0.762,0.874891 -1.32642,1.213558 -2.00376,1.213558 -0.84666,0 -1.43936,-0.762 -1.43936,-1.890891 0,-1.636886 1.18536,-2.822223 3.44312,-3.414889 z"
         style="font-style:normal;font-variant:normal;font-weight:bold;font-stretch:normal;font-size:8.19334px;line-height:1.25;font-family:FreeSerif;-inkscape-font-specification:'FreeSerif Bold';letter-spacing:0px;word-spacing:0px;white-space:pre;opacity:0.997;fill:#000000;fill-opacity:1;stroke:none;stroke-width:1"
         id="path1014" />
      <path
         d="m 272.41431,74.126571 h -2.65287 v -4.769559 h -0.70555 c -1.72157,2.427111 -2.85045,3.697114 -4.68491,5.249334 v 0.762003 h 1.46758 v 9.144002 c 0,1.834445 1.21355,2.963335 3.16088,2.963335 1.89087,0 3.01979,-0.846669 4.17687,-3.160893 l -0.70554,-0.310455 c -0.56446,1.072445 -1.016,1.467553 -1.60867,1.467553 -0.79021,0 -1.10066,-0.479775 -1.10066,-1.608666 v -8.49489 h 2.65287 z"
         style="font-style:normal;font-variant:normal;font-weight:bold;font-stretch:normal;font-size:8.19334px;line-height:1.25;font-family:FreeSerif;-inkscape-font-specification:'FreeSerif Bold';letter-spacing:0px;word-spacing:0px;white-space:pre;opacity:0.997;fill:#000000;fill-opacity:1;stroke:none;stroke-width:1"
         id="path1016" />
      <path
         d="m 279.41343,74.126571 h -5.4187 v 0.677333 c 1.24179,0.254 1.49579,0.507999 1.49579,1.665111 v 8.297336 c 0,1.157112 -0.19771,1.382891 -1.49579,1.693333 v 0.677336 h 6.80158 v -0.677336 c -0.98779,-0.141123 -1.38288,-0.536221 -1.38288,-1.608666 z m -1.97557,-6.491116 c -1.21355,0 -2.20134,0.987778 -2.20134,2.173114 0,1.27 0.93134,2.201333 2.17312,2.201333 1.24179,0 2.20134,-0.931333 2.20134,-2.173112 0,-1.213557 -0.95955,-2.201335 -2.17312,-2.201335 z"
         style="font-style:normal;font-variant:normal;font-weight:bold;font-stretch:normal;font-size:8.19334px;line-height:1.25;font-family:FreeSerif;-inkscape-font-specification:'FreeSerif Bold';letter-spacing:0px;word-spacing:0px;white-space:pre;opacity:0.997;fill:#000000;fill-opacity:1;stroke:none;stroke-width:1"
         id="path1018" />
      <path
         d="m 288.27518,73.787904 c -3.58421,0 -6.37824,2.963332 -6.37824,6.801558 0,4.035777 2.68112,6.942667 6.37824,6.942667 3.64067,0 6.35,-2.935111 6.35,-6.858 0,-3.951114 -2.70933,-6.886225 -6.35,-6.886225 z m 0.0276,0.874887 c 1.63691,0 2.17312,1.552224 2.17312,6.180671 0,4.346222 -0.56445,5.813779 -2.20133,5.813779 -1.66512,0 -2.22954,-1.439336 -2.22954,-5.559779 0,-4.967113 0.508,-6.434671 2.25775,-6.434671 z"
         style="font-style:normal;font-variant:normal;font-weight:bold;font-stretch:normal;font-size:8.19334px;line-height:1.25;font-family:FreeSerif;-inkscape-font-specification:'FreeSerif Bold';letter-spacing:0px;word-spacing:0px;white-space:pre;opacity:0.997;fill:#000000;fill-opacity:1;stroke:none;stroke-width:1"
         id="path1020" />
      <path
         d="m 303.40226,75.678791 c 0.98779,0 1.46758,0.762003 1.46758,2.342448 v 6.829779 c 0,1.044224 -0.36691,1.495778 -1.32645,1.608666 v 0.677336 h 6.6322 v -0.677336 c -1.10066,-0.08467 -1.38287,-0.423334 -1.38287,-1.608666 v -7.083779 c 0,-2.427115 -1.49579,-3.979335 -3.81,-3.979335 -1.69333,0 -2.99154,0.790221 -4.03579,2.455332 v -2.116665 h -5.39045 v 0.677333 c 1.24179,0.197544 1.49579,0.479778 1.49579,1.665111 v 8.297336 c 0,1.185333 -0.22596,1.439333 -1.49579,1.693333 v 0.677336 h 6.80157 v -0.677336 c -1.04421,-0.141123 -1.38291,-0.564442 -1.38291,-1.608666 v -7.535337 c 0,-0.310455 1.24179,-1.63689 2.42712,-1.63689 z"
         style="font-style:normal;font-variant:normal;font-weight:bold;font-stretch:normal;font-size:8.19334px;line-height:1.25;font-family:FreeSerif;-inkscape-font-specification:'FreeSerif Bold';letter-spacing:0px;word-spacing:0px;white-space:pre;opacity:0.997;fill:#000000;fill-opacity:1;stroke:none;stroke-width:1"
         id="path1022" />
      <path
         d="m 315.87647,73.787904 c -2.56821,0 -4.43088,1.749778 -4.43088,4.120444 0,4.374446 6.71688,4.176892 6.71688,6.829782 0,1.100666 -0.84667,1.834445 -2.11667,1.834445 -1.97554,0 -3.27379,-1.270003 -3.86645,-3.725335 h -0.79021 v 4.656668 h 0.70554 c 0.31035,-0.592667 0.47979,-0.790225 0.73379,-0.790225 0.67733,0 1.69333,0.818446 3.69712,0.818446 2.56821,0 4.34621,-1.749778 4.34621,-4.289777 0,-4.684892 -6.604,-4.03578 -6.604,-6.886225 0,-0.931336 0.79021,-1.63689 1.86267,-1.63689 1.41112,0 2.65287,0.931333 3.44312,3.217335 h 0.70554 v -4.092226 h -0.62087 c -0.16948,0.423333 -0.3386,0.564446 -0.67734,0.564446 -0.64912,0 -1.69333,-0.620888 -3.10445,-0.620888 z"
         style="font-style:normal;font-variant:normal;font-weight:bold;font-stretch:normal;font-size:8.19334px;line-height:1.25;font-family:FreeSerif;-inkscape-font-specification:'FreeSerif Bold';letter-spacing:0px;word-spacing:0px;white-space:pre;opacity:0.997;fill:#000000;fill-opacity:1;stroke:none;stroke-width:1"
         id="path1024" />
    </g>
    <g
       id="g1071"
       transform="translate(-100.45961,21.307781)">
      <path
         d="m 339.0186,68.764345 v -0.705557 h -9.53912 v 0.705557 c 1.97554,0.197544 2.31421,0.564446 2.31421,2.596445 v 9.426226 c 0,2.765778 0.59267,4.148668 2.31424,5.390447 1.35467,0.987778 3.16088,1.495778 5.22109,1.495778 5.44691,0 7.28136,-3.217335 7.28136,-7.507116 v -9.00289 c 0,-1.665111 0.39509,-2.116669 2.20134,-2.39889 v -0.705557 h -6.20891 v 0.705557 c 2.20133,0.169334 2.76578,0.733779 2.76578,2.794002 v 8.607778 c 0,4.176893 -1.58045,6.124225 -4.9389,6.124225 -2.87867,0 -4.14867,-1.665111 -4.14867,-5.503334 V 71.36079 c 0,-2.229557 0.56446,-2.511778 2.73758,-2.596445 z"
         style="font-style:normal;font-variant:normal;font-weight:bold;font-stretch:normal;font-size:8.19334px;line-height:1.25;font-family:FreeSerif;-inkscape-font-specification:'FreeSerif Bold';letter-spacing:0px;word-spacing:0px;white-space:pre;opacity:0.997;fill:#000000;fill-opacity:1;stroke:none;stroke-width:1"
         id="path1026" />
      <path
         d="m 356.88319,75.678791 c 0.98779,0 1.46757,0.762003 1.46757,2.342448 v 6.829779 c 0,1.044224 -0.36691,1.495778 -1.32645,1.608666 v 0.677336 h 6.63224 v -0.677336 c -1.10067,-0.08467 -1.38291,-0.423334 -1.38291,-1.608666 v -7.083779 c 0,-2.427115 -1.49579,-3.979335 -3.81,-3.979335 -1.69333,0 -2.99154,0.790221 -4.03579,2.455332 v -2.116665 h -5.39041 v 0.677333 c 1.24175,0.197544 1.49575,0.479778 1.49575,1.665111 v 8.297336 c 0,1.185333 -0.22562,1.439333 -1.49575,1.693333 v 0.677336 h 6.80154 v -0.677336 c -1.04421,-0.141123 -1.38288,-0.564442 -1.38288,-1.608666 v -7.535337 c 0,-0.310455 1.24175,-1.63689 2.42709,-1.63689 z"
         style="font-style:normal;font-variant:normal;font-weight:bold;font-stretch:normal;font-size:8.19334px;line-height:1.25;font-family:FreeSerif;-inkscape-font-specification:'FreeSerif Bold';letter-spacing:0px;word-spacing:0px;white-space:pre;opacity:0.997;fill:#000000;fill-opacity:1;stroke:none;stroke-width:1"
         id="path1028" />
      <path
         d="m 370.26051,74.126571 h -5.41866 v 0.677333 c 1.24179,0.254 1.49579,0.507999 1.49579,1.665111 v 8.297336 c 0,1.157112 -0.19772,1.382891 -1.49579,1.693333 v 0.677336 h 6.80154 v -0.677336 c -0.98775,-0.141123 -1.38288,-0.536221 -1.38288,-1.608666 z m -1.97554,-6.491116 c -1.21358,0 -2.20133,0.987778 -2.20133,2.173114 0,1.27 0.93133,2.201333 2.17308,2.201333 1.24179,0 2.20134,-0.931333 2.20134,-2.173112 0,-1.213557 -0.95955,-2.201335 -2.17309,-2.201335 z"
         style="font-style:normal;font-variant:normal;font-weight:bold;font-stretch:normal;font-size:8.19334px;line-height:1.25;font-family:FreeSerif;-inkscape-font-specification:'FreeSerif Bold';letter-spacing:0px;word-spacing:0px;white-space:pre;opacity:0.997;fill:#000000;fill-opacity:1;stroke:none;stroke-width:1"
         id="path1030" />
      <path
         d="m 376.80805,80.222571 h 7.112 c -0.19737,-2.794002 -1.016,-6.434667 -5.27754,-6.434667 -3.52779,0 -5.89845,2.793999 -5.89845,6.914446 0,4.120447 2.31421,6.829779 5.81378,6.829779 2.286,0 3.66888,-0.903112 5.50333,-3.527778 l -0.67733,-0.395112 c -1.12891,1.382891 -2.00379,1.890891 -3.21733,1.890891 -2.85046,0 -3.24558,-3.189114 -3.35846,-5.277559 z m 3.64067,-1.467557 v 0.423336 h -3.78179 c 0.0847,-3.386668 0.59267,-4.515559 1.97558,-4.515559 1.63688,0 1.72154,1.665112 1.80621,4.092223 z"
         style="font-style:normal;font-variant:normal;font-weight:bold;font-stretch:normal;font-size:8.19334px;line-height:1.25;font-family:FreeSerif;-inkscape-font-specification:'FreeSerif Bold';letter-spacing:0px;word-spacing:0px;white-space:pre;opacity:0.997;fill:#000000;fill-opacity:1;stroke:none;stroke-width:1"
         id="path1032" />
      <path
         d="m 389.76198,73.787904 c -2.56821,0 -4.43088,1.749778 -4.43088,4.120444 0,4.374446 6.71691,4.176892 6.71691,6.829782 0,1.100666 -0.84666,1.834445 -2.1167,1.834445 -1.97554,0 -3.27375,-1.270003 -3.86642,-3.725335 h -0.79024 v 4.656668 h 0.70558 c 0.31035,-0.592667 0.47975,-0.790225 0.73375,-0.790225 0.67733,0 1.69333,0.818446 3.69712,0.818446 2.56824,0 4.34624,-1.749778 4.34624,-4.289777 0,-4.684892 -6.60403,-4.03578 -6.60403,-6.886225 0,-0.931336 0.79025,-1.63689 1.86267,-1.63689 1.41112,0 2.65291,0.931333 3.44312,3.217335 h 0.70558 v -4.092226 h -0.62091 c -0.16948,0.423333 -0.3386,0.564446 -0.67734,0.564446 -0.64909,0 -1.69333,-0.620888 -3.10445,-0.620888 z"
         style="font-style:normal;font-variant:normal;font-weight:bold;font-stretch:normal;font-size:8.19334px;line-height:1.25;font-family:FreeSerif;-inkscape-font-specification:'FreeSerif Bold';letter-spacing:0px;word-spacing:0px;white-space:pre;opacity:0.997;fill:#000000;fill-opacity:1;stroke:none;stroke-width:1"
         id="path1034" />
    </g>
    <g
       id="g1086"
       transform="translate(-0.91239863,18.046825)">
      <path
         d="m 256.08369,107.90352 c 0.73024,-0.20637 1.12712,-0.26988 2.11136,-0.39688 l 0.98427,-0.127 v -0.36512 c -0.73027,-0.0476 -0.93663,-0.254 -0.93663,-0.92075 v -9.128119 h -3.41312 v 0.381 c 1.06363,0.0794 1.20648,0.19052 1.20648,0.92075 v 2.905119 c -0.6826,-0.73025 -1.15885,-0.98425 -1.88912,-0.98425 -1.74624,0 -3.048,1.69862 -3.048,4.0005 0,2.159 1.20652,3.73062 2.8734,3.73062 0.84136,0 1.36524,-0.254 2.11136,-1.04775 z m -1.397,-0.87313 c -0.84136,0 -1.23824,-0.9525 -1.23824,-2.96862 0,-2.04788 0.4286,-2.9845 1.34936,-2.9845 0.52388,0 1.016,0.381 1.23824,0.98425 v 3.85762 c 0,0.15876 -0.53973,1.11125 -1.34936,1.11125 z"
         style="font-style:normal;font-weight:normal;font-size:4.60875px;line-height:1.25;font-family:sans-serif;letter-spacing:0px;word-spacing:0px;white-space:pre;opacity:0.997;fill:#000000;fill-opacity:1;stroke:none;stroke-width:1"
         id="path1036" />
      <path
         d="m 261.98917,103.80777 h 4.00048 c -0.11126,-1.57162 -0.57149,-3.6195 -2.96864,-3.6195 -1.98436,0 -3.31784,1.57162 -3.31784,3.88937 0,2.31775 1.30172,3.84175 3.27024,3.84175 1.28588,0 2.06375,-0.508 3.0956,-1.98437 l -0.381,-0.22224 c -0.635,0.77787 -1.12712,1.06362 -1.80972,1.06362 -1.6034,0 -1.82564,-1.79387 -1.88912,-2.96862 z m 2.04784,-0.8255 v 0.23812 h -2.12724 c 0.0475,-1.905 0.33343,-2.54 1.11124,-2.54 0.92076,0 0.9684,0.93663 1.016,2.30188 z"
         style="font-style:normal;font-weight:normal;font-size:4.60875px;line-height:1.25;font-family:sans-serif;letter-spacing:0px;word-spacing:0px;white-space:pre;opacity:0.997;fill:#000000;fill-opacity:1;stroke:none;stroke-width:1"
         id="path1038" />
      <path
         d="m 273.65721,96.965651 h -3.048 v 0.381 c 0.55564,0.0476 0.84136,0.33336 0.84136,0.92075 v 8.096239 c 0,0.58738 -0.30174,0.90488 -0.84136,0.9525 v 0.381 h 3.82588 v -0.381 c -0.52388,-0.0158 -0.77788,-0.31748 -0.77788,-0.9525 z"
         style="font-style:normal;font-weight:normal;font-size:4.60875px;line-height:1.25;font-family:sans-serif;letter-spacing:0px;word-spacing:0px;white-space:pre;opacity:0.997;fill:#000000;fill-opacity:1;stroke:none;stroke-width:1"
         id="path1040" />
      <path
         d="m 277.05445,101.28365 c 0,-0.33337 0.44448,-0.58738 1.00012,-0.58738 0.92076,0 1.33348,0.42862 1.33348,1.397 v 1.15888 c -1.84148,0.55562 -4.27036,1.19062 -4.27036,2.98449 0,0.96838 0.74612,1.68275 1.76212,1.68275 0.90488,0 1.63512,-0.31752 2.50824,-1.11125 0.17464,0.80963 0.52388,1.11125 1.30176,1.11125 0.68264,0 1.17476,-0.254 1.778,-0.90487 l -0.23802,-0.33337 -0.15879,0.15876 c -0.0475,0.0476 -0.0954,0.0635 -0.17464,0.0635 -0.22217,0 -0.33343,-0.14287 -0.33343,-0.39687 v -4.14337 c 0,-1.3335 -1.20648,-2.17488 -3.14324,-2.17488 -1.79388,0 -3.00036,0.80963 -3.00036,2.00025 0,0.65088 0.381,1.04775 1.03185,1.04775 0.635,0 1.07951,-0.381 1.07951,-0.92075 0,-0.47625 -0.47624,-0.80962 -0.47624,-1.03187 z m 2.31772,4.82599 c -0.4286,0.49213 -0.74612,0.68263 -1.12712,0.68263 -0.47624,0 -0.8096,-0.42863 -0.8096,-1.06363 0,-0.92075 0.66673,-1.5875 1.93672,-1.92087 z"
         style="font-style:normal;font-weight:normal;font-size:4.60875px;line-height:1.25;font-family:sans-serif;letter-spacing:0px;word-spacing:0px;white-space:pre;opacity:0.997;fill:#000000;fill-opacity:1;stroke:none;stroke-width:1"
         id="path1042" />
    </g>
    <g
       id="g1098"
       transform="translate(-1.1176666,15.011647)">
      <path
         d="m 245.46219,123.67469 h 0.67736 v -5.67267 h -16.00202 v 0.70555 c 1.94733,0.11288 2.48357,0.53623 2.48357,2.00379 v 13.65955 c 0,1.46756 -0.39512,1.77801 -2.48357,2.00378 v 0.70556 h 10.15999 v -0.70556 c -2.59642,-0.11288 -3.10442,-0.45155 -3.10442,-2.00378 v -6.57578 c 2.87867,0.0565 3.92288,1.10067 4.318,4.37445 h 0.70554 v -9.53911 h -0.70554 c -0.508,3.21733 -1.49579,4.20511 -4.318,4.20511 v -6.54756 c 0,-1.04422 0.36688,-1.32645 1.80621,-1.32645 5.50333,0 5.89845,2.14489 6.46288,4.71312 z"
         style="font-style:normal;font-variant:normal;font-weight:bold;font-stretch:normal;font-size:8.19334px;line-height:1.25;font-family:FreeSerif;-inkscape-font-specification:'FreeSerif Bold';letter-spacing:0px;word-spacing:0px;white-space:pre;opacity:0.997;fill:#000000;fill-opacity:1;stroke:none;stroke-width:1"
         id="path1044" />
      <path
         d="m 251.75573,130.1658 h 7.11199 c -0.19771,-2.794 -1.016,-6.43467 -5.27754,-6.43467 -3.52779,0 -5.89845,2.794 -5.89845,6.91445 0,4.12045 2.31421,6.82978 5.81378,6.82978 2.286,0 3.66888,-0.90311 5.50334,-3.52778 l -0.67734,-0.39511 c -1.12891,1.38289 -2.00379,1.89089 -3.21733,1.89089 -2.85045,0 -3.24558,-3.18911 -3.35845,-5.27756 z m 3.64066,-1.46755 v 0.42333 h -3.78179 c 0.0847,-3.38667 0.59267,-4.51556 1.97558,-4.51556 1.63688,0 1.72154,1.66511 1.80621,4.09223 z m -4.20512,-6.49112 h 1.58046 l 4.00754,-2.48355 c 0.90312,-0.56445 1.12891,-0.84667 1.12891,-1.49578 0,-0.73378 -0.53625,-1.24178 -1.35467,-1.24178 -0.53624,0 -1.016,0.254 -1.49579,0.79022 z"
         style="font-style:normal;font-variant:normal;font-weight:bold;font-stretch:normal;font-size:8.19334px;line-height:1.25;font-family:FreeSerif;-inkscape-font-specification:'FreeSerif Bold';letter-spacing:0px;word-spacing:0px;white-space:pre;opacity:0.997;fill:#000000;fill-opacity:1;stroke:none;stroke-width:1"
         id="path1046" />
      <path
         d="m 269.08414,137.44714 c 1.29821,-0.36689 2.00375,-0.47978 3.75354,-0.70556 l 1.74979,-0.22579 v -0.64911 c -1.29825,-0.0847 -1.66512,-0.45155 -1.66512,-1.63689 v -16.22777 h -6.06779 v 0.67733 c 1.89091,0.14113 2.14491,0.33867 2.14491,1.63689 v 5.16467 c -1.21358,-1.29822 -2.06024,-1.74978 -3.35845,-1.74978 -3.10446,0 -5.41867,3.01978 -5.41867,7.11201 0,3.83822 2.14488,6.63222 5.10821,6.63222 1.49579,0 2.42712,-0.45156 3.75358,-1.86267 z m -2.48358,-1.55222 c -1.49575,0 -2.20133,-1.69334 -2.20133,-5.27756 0,-3.64067 0.762,-5.30578 2.39891,-5.30578 0.93133,0 1.80621,0.67733 2.20133,1.74978 v 6.858 c 0,0.28221 -0.95958,1.97556 -2.39891,1.97556 z"
         style="font-style:normal;font-variant:normal;font-weight:bold;font-stretch:normal;font-size:8.19334px;line-height:1.25;font-family:FreeSerif;-inkscape-font-specification:'FreeSerif Bold';letter-spacing:0px;word-spacing:0px;white-space:pre;opacity:0.997;fill:#000000;fill-opacity:1;stroke:none;stroke-width:1"
         id="path1048" />
      <path
         d="m 279.58273,130.1658 h 7.112 c -0.19737,-2.794 -1.016,-6.43467 -5.27754,-6.43467 -3.52779,0 -5.89846,2.794 -5.89846,6.91445 0,4.12045 2.31425,6.82978 5.81379,6.82978 2.286,0 3.66888,-0.90311 5.50333,-3.52778 l -0.67733,-0.39511 c -1.12888,1.38289 -2.00379,1.89089 -3.21733,1.89089 -2.85046,0 -3.24555,-3.18911 -3.35846,-5.27756 z m 3.64067,-1.46755 v 0.42333 h -3.78176 c 0.0847,-3.38667 0.59267,-4.51556 1.97555,-4.51556 1.63687,0 1.72154,1.66511 1.80621,4.09223 z m -4.20509,-6.49112 h 1.58042 l 4.00758,-2.48355 c 0.90309,-0.56445 1.12887,-0.84667 1.12887,-1.49578 0,-0.73378 -0.53621,-1.24178 -1.35466,-1.24178 -0.53621,0 -1.016,0.254 -1.49579,0.79022 z"
         style="font-style:normal;font-variant:normal;font-weight:bold;font-stretch:normal;font-size:8.19334px;line-height:1.25;font-family:FreeSerif;-inkscape-font-specification:'FreeSerif Bold';letter-spacing:0px;word-spacing:0px;white-space:pre;opacity:0.997;fill:#000000;fill-opacity:1;stroke:none;stroke-width:1"
         id="path1050" />
      <path
         d="m 297.19335,127.82336 c 1.04421,0 1.778,-0.79023 1.778,-1.89089 0,-1.27 -0.95954,-2.20134 -2.286,-2.20134 -1.41112,0 -2.48354,0.762 -3.80999,2.65289 v -2.31422 h -5.30579 v 0.67733 c 1.21358,0.16934 1.49579,0.53623 1.49579,1.66511 v 8.29734 c 0,1.15711 -0.25386,1.46756 -1.49579,1.69334 v 0.67733 h 7.47891 v -0.67733 c -1.72158,-0.11288 -2.06025,-0.47978 -2.06025,-2.22956 v -5.334 c 0,-1.46756 0.79025,-2.68112 1.72158,-2.68112 0.59267,0 0.98776,1.66512 2.48354,1.66512 z"
         style="font-style:normal;font-variant:normal;font-weight:bold;font-stretch:normal;font-size:8.19334px;line-height:1.25;font-family:FreeSerif;-inkscape-font-specification:'FreeSerif Bold';letter-spacing:0px;word-spacing:0px;white-space:pre;opacity:0.997;fill:#000000;fill-opacity:1;stroke:none;stroke-width:1"
         id="path1052" />
      <path
         d="m 303.26107,125.67847 c 0,-0.59267 0.79025,-1.04423 1.778,-1.04423 1.63691,0 2.37067,0.762 2.37067,2.48356 v 2.06022 c -3.27376,0.98778 -7.59175,2.11667 -7.59175,5.30578 0,1.72156 1.32642,2.99156 3.13266,2.99156 1.60867,0 2.90688,-0.56444 4.45909,-1.97556 0.31035,1.43934 0.93133,1.97556 2.31424,1.97556 1.21354,0 2.08846,-0.45156 3.16088,-1.60867 l -0.42334,-0.59267 -0.2821,0.28222 c -0.0847,0.0847 -0.16948,0.11287 -0.31036,0.11287 -0.39508,0 -0.59266,-0.254 -0.59266,-0.70555 v -7.366 c 0,-2.37067 -2.14488,-3.86645 -5.588,-3.86645 -3.18912,0 -5.334,1.43933 -5.334,3.556 0,1.15711 0.67734,1.86267 1.83446,1.86267 1.12887,0 1.91908,-0.67734 1.91908,-1.63689 0,-0.84667 -0.84666,-1.43934 -0.84666,-1.83445 z m 4.12046,8.57956 c -0.762,0.87488 -1.32646,1.21355 -2.00379,1.21355 -0.84667,0 -1.43934,-0.762 -1.43934,-1.89089 0,-1.63689 1.18534,-2.82222 3.44313,-3.41489 z"
         style="font-style:normal;font-variant:normal;font-weight:bold;font-stretch:normal;font-size:8.19334px;line-height:1.25;font-family:FreeSerif;-inkscape-font-specification:'FreeSerif Bold';letter-spacing:0px;word-spacing:0px;white-space:pre;opacity:0.997;fill:#000000;fill-opacity:1;stroke:none;stroke-width:1"
         id="path1054" />
      <path
         d="m 321.49257,124.0698 h -2.65287 v -4.76956 h -0.70555 c -1.72158,2.42711 -2.85045,3.69711 -4.68491,5.24934 v 0.762 h 1.46758 v 9.144 c 0,1.83444 1.21354,2.96334 3.16088,2.96334 1.89087,0 3.01978,-0.84667 4.17687,-3.16089 l -0.70554,-0.31046 c -0.56446,1.07244 -1.016,1.46756 -1.60867,1.46756 -0.79021,0 -1.10066,-0.47978 -1.10066,-1.60867 v -8.49489 h 2.65287 z"
         style="font-style:normal;font-variant:normal;font-weight:bold;font-stretch:normal;font-size:8.19334px;line-height:1.25;font-family:FreeSerif;-inkscape-font-specification:'FreeSerif Bold';letter-spacing:0px;word-spacing:0px;white-space:pre;opacity:0.997;fill:#000000;fill-opacity:1;stroke:none;stroke-width:1"
         id="path1056" />
      <path
         d="m 328.49169,124.0698 h -5.4187 v 0.67733 c 1.24179,0.254 1.49579,0.508 1.49579,1.66511 v 8.29734 c 0,1.15711 -0.19737,1.38289 -1.49579,1.69334 v 0.67733 h 6.80158 v -0.67733 c -0.98779,-0.14113 -1.38288,-0.53623 -1.38288,-1.60867 z m -1.97558,-6.49111 c -1.21354,0 -2.20133,0.98778 -2.20133,2.17311 0,1.27 0.93133,2.20133 2.17312,2.20133 1.24179,0 2.20134,-0.93133 2.20134,-2.17311 0,-1.21355 -0.95955,-2.20133 -2.17313,-2.20133 z"
         style="font-style:normal;font-variant:normal;font-weight:bold;font-stretch:normal;font-size:8.19334px;line-height:1.25;font-family:FreeSerif;-inkscape-font-specification:'FreeSerif Bold';letter-spacing:0px;word-spacing:0px;white-space:pre;opacity:0.997;fill:#000000;fill-opacity:1;stroke:none;stroke-width:1"
         id="path1058" />
      <path
         d="m 337.35344,123.73113 c -3.58424,0 -6.37824,2.96334 -6.37824,6.80156 0,4.03578 2.68112,6.94267 6.37824,6.94267 3.64067,0 6.35,-2.93511 6.35,-6.858 0,-3.95112 -2.70933,-6.88623 -6.35,-6.88623 z m 0.0276,0.87489 c 1.63691,0 2.17312,1.55222 2.17312,6.18067 0,4.34622 -0.56446,5.81378 -2.20133,5.81378 -1.66512,0 -2.22958,-1.43933 -2.22958,-5.55978 0,-4.96711 0.50803,-6.43467 2.25779,-6.43467 z"
         style="font-style:normal;font-variant:normal;font-weight:bold;font-stretch:normal;font-size:8.19334px;line-height:1.25;font-family:FreeSerif;-inkscape-font-specification:'FreeSerif Bold';letter-spacing:0px;word-spacing:0px;white-space:pre;opacity:0.997;fill:#000000;fill-opacity:1;stroke:none;stroke-width:1"
         id="path1060" />
      <path
         d="m 352.48052,125.62202 c 0.98779,0 1.46758,0.762 1.46758,2.34245 v 6.82978 c 0,1.04422 -0.36691,1.49577 -1.32646,1.60867 v 0.67733 h 6.63225 v -0.67733 c -1.1007,-0.0847 -1.38291,-0.42334 -1.38291,-1.60867 v -7.08378 c 0,-2.42711 -1.49579,-3.97934 -3.81,-3.97934 -1.69334,0 -2.99155,0.79023 -4.03579,2.45534 v -2.11667 h -5.39045 v 0.67733 c 1.24179,0.19755 1.49579,0.47978 1.49579,1.66511 v 8.29734 c 0,1.18534 -0.22562,1.43934 -1.49579,1.69334 v 0.67733 h 6.80157 v -0.67733 c -1.04421,-0.14113 -1.38287,-0.56445 -1.38287,-1.60867 v -7.53534 c 0,-0.31045 1.24175,-1.63689 2.42708,-1.63689 z"
         style="font-style:normal;font-variant:normal;font-weight:bold;font-stretch:normal;font-size:8.19334px;line-height:1.25;font-family:FreeSerif;-inkscape-font-specification:'FreeSerif Bold';letter-spacing:0px;word-spacing:0px;white-space:pre;opacity:0.997;fill:#000000;fill-opacity:1;stroke:none;stroke-width:1"
         id="path1062" />
    </g>
    <g
       id="g1105"
       transform="translate(-1.1176666,11.703084)">
      <path
         d="m 232.76219,163.18427 c 0,1.41111 -0.508,1.80622 -2.62466,2.00378 v 0.70555 h 9.87778 v -0.70555 c -2.14488,-0.14112 -2.68112,-0.53622 -2.68112,-2.00378 v -13.65956 c 0,-1.46756 0.59267,-1.91911 2.68112,-2.00378 v -0.70555 h -9.87778 v 0.70555 c 2.032,0.14113 2.62466,0.56445 2.62466,2.00378 z"
         style="font-style:normal;font-variant:normal;font-weight:bold;font-stretch:normal;font-size:8.19334px;line-height:1.25;font-family:FreeSerif;-inkscape-font-specification:'FreeSerif Bold';letter-spacing:0px;word-spacing:0px;white-space:pre;opacity:0.997;fill:#000000;fill-opacity:1;stroke:none;stroke-width:1"
         id="path1064" />
      <path
         d="m 248.93352,154.43538 c 0.98779,0 1.46754,0.762 1.46754,2.34244 v 6.82979 c 0,1.04422 -0.36688,1.49577 -1.32642,1.60866 v 0.67733 h 6.63221 v -0.67733 c -1.10067,-0.0847 -1.38288,-0.42333 -1.38288,-1.60866 v -7.08379 c 0,-2.42711 -1.49579,-3.97933 -3.81,-3.97933 -1.69333,0 -2.99157,0.79022 -4.03579,2.45533 v -2.11667 h -5.39045 v 0.67734 c 1.24179,0.19754 1.49579,0.47978 1.49579,1.66511 v 8.29734 c 0,1.18533 -0.22596,1.43933 -1.49579,1.69333 v 0.67733 h 6.80158 v -0.67733 c -1.04425,-0.14112 -1.38291,-0.56444 -1.38291,-1.60866 v -7.53534 c 0,-0.31046 1.24178,-1.63689 2.42712,-1.63689 z"
         style="font-style:normal;font-variant:normal;font-weight:bold;font-stretch:normal;font-size:8.19334px;line-height:1.25;font-family:FreeSerif;-inkscape-font-specification:'FreeSerif Bold';letter-spacing:0px;word-spacing:0px;white-space:pre;opacity:0.997;fill:#000000;fill-opacity:1;stroke:none;stroke-width:1"
         id="path1066" />
      <path
         d="m 264.48393,152.88315 h -2.65288 v -4.76955 h -0.70557 c -1.72155,2.42711 -2.85042,3.69711 -4.68488,5.24933 v 0.762 h 1.46754 v 9.14401 c 0,1.83444 1.21358,2.96333 3.16091,2.96333 1.89088,0 3.01976,-0.84667 4.17688,-3.16089 l -0.70554,-0.31045 c -0.56446,1.07244 -1.016,1.46755 -1.60867,1.46755 -0.79024,0 -1.10067,-0.47978 -1.10067,-1.60866 v -8.4949 h 2.65288 z"
         style="font-style:normal;font-variant:normal;font-weight:bold;font-stretch:normal;font-size:8.19334px;line-height:1.25;font-family:FreeSerif;-inkscape-font-specification:'FreeSerif Bold';letter-spacing:0px;word-spacing:0px;white-space:pre;opacity:0.997;fill:#000000;fill-opacity:1;stroke:none;stroke-width:1"
         id="path1068" />
      <path
         d="m 270.15656,158.97916 h 7.11203 c -0.19772,-2.794 -1.016,-6.43467 -5.27758,-6.43467 -3.52778,0 -5.89845,2.794 -5.89845,6.91445 0,4.12044 2.31425,6.82978 5.81379,6.82978 2.286,0 3.66891,-0.90312 5.50333,-3.52778 l -0.67733,-0.39511 c -1.12888,1.38288 -2.00376,1.89088 -3.21734,1.89088 -2.85045,0 -3.24554,-3.18911 -3.35845,-5.27755 z m 3.6407,-1.46756 v 0.42333 h -3.78179 c 0.0847,-3.38666 0.59267,-4.51555 1.97554,-4.51555 1.63692,0 1.72158,1.66511 1.80625,4.09222 z"
         style="font-style:normal;font-variant:normal;font-weight:bold;font-stretch:normal;font-size:8.19334px;line-height:1.25;font-family:FreeSerif;-inkscape-font-specification:'FreeSerif Bold';letter-spacing:0px;word-spacing:0px;white-space:pre;opacity:0.997;fill:#000000;fill-opacity:1;stroke:none;stroke-width:1"
         id="path1070" />
      <path
         d="m 287.76718,156.63671 c 1.04425,0 1.778,-0.79022 1.778,-1.89089 0,-1.27 -0.95954,-2.20133 -2.286,-2.20133 -1.41108,0 -2.48354,0.762 -3.80999,2.65289 v -2.31423 h -5.30579 v 0.67734 c 1.21358,0.16933 1.49579,0.53622 1.49579,1.66511 v 8.29734 c 0,1.15711 -0.25386,1.46755 -1.49579,1.69333 v 0.67733 h 7.47891 v -0.67733 c -1.72155,-0.11288 -2.06021,-0.47978 -2.06021,-2.22956 v -5.334 c 0,-1.46755 0.79021,-2.68111 1.72154,-2.68111 0.59267,0 0.98779,1.66511 2.48354,1.66511 z"
         style="font-style:normal;font-variant:normal;font-weight:bold;font-stretch:normal;font-size:8.19334px;line-height:1.25;font-family:FreeSerif;-inkscape-font-specification:'FreeSerif Bold';letter-spacing:0px;word-spacing:0px;white-space:pre;opacity:0.997;fill:#000000;fill-opacity:1;stroke:none;stroke-width:1"
         id="path1072" />
    </g>
    <g
       id="g1116"
       transform="translate(-1.1176666,8.0982225)">
      <path
         d="m 245.46219,182.02108 h 0.67736 v -5.6727 h -16.00202 v 0.70558 c 1.94733,0.11298 2.48357,0.53621 2.48357,2.00375 v 13.65957 c 0,1.46758 -0.39512,1.778 -2.48357,2.00379 v 0.70554 h 10.15999 v -0.70554 c -2.59642,-0.11298 -3.10442,-0.45154 -3.10442,-2.00379 v -6.57578 c 2.87867,0.0565 3.92288,1.10066 4.318,4.37445 h 0.70554 v -9.53912 h -0.70554 c -0.508,3.21733 -1.49579,4.20512 -4.318,4.20512 v -6.54757 c 0,-1.04421 0.36688,-1.32642 1.80621,-1.32642 5.50333,0 5.89845,2.14487 6.46288,4.71312 z"
         style="font-style:normal;font-variant:normal;font-weight:bold;font-stretch:normal;font-size:8.19334px;line-height:1.25;font-family:FreeSerif;-inkscape-font-specification:'FreeSerif Bold';letter-spacing:0px;word-spacing:0px;white-space:pre;opacity:0.997;fill:#000000;fill-opacity:1;stroke:none;stroke-width:1"
         id="path1074" />
      <path
         d="m 250.57036,184.02483 c 0,-0.59267 0.79024,-1.04421 1.77803,-1.04421 1.63688,0 2.37067,0.762 2.37067,2.48354 v 2.06025 c -3.27379,0.98775 -7.59179,2.11666 -7.59179,5.30578 0,1.72155 1.32642,2.99155 3.13267,2.99155 1.60866,0 2.90687,-0.56446 4.45912,-1.97555 0.31035,1.43934 0.93133,1.97555 2.31421,1.97555 1.21354,0 2.08845,-0.45155 3.16087,-1.60867 l -0.42333,-0.59267 -0.28211,0.28211 c -0.0847,0.0847 -0.16947,0.11298 -0.31035,0.11298 -0.39509,0 -0.59267,-0.25386 -0.59267,-0.70558 v -7.36599 c 0,-2.37067 -2.14487,-3.86646 -5.58799,-3.86646 -3.18912,0 -5.334,1.43934 -5.334,3.556 0,1.15712 0.67733,1.86267 1.83445,1.86267 1.12888,0 1.91913,-0.67734 1.91913,-1.63688 0,-0.84667 -0.8467,-1.43933 -0.8467,-1.83445 z m 4.12045,8.57957 c -0.762,0.87488 -1.32642,1.21355 -2.00375,1.21355 -0.84667,0 -1.43937,-0.762 -1.43937,-1.89088 0,-1.63691 1.18537,-2.82224 3.44312,-3.41491 z"
         style="font-style:normal;font-variant:normal;font-weight:bold;font-stretch:normal;font-size:8.19334px;line-height:1.25;font-family:FreeSerif;-inkscape-font-specification:'FreeSerif Bold';letter-spacing:0px;word-spacing:0px;white-space:pre;opacity:0.997;fill:#000000;fill-opacity:1;stroke:none;stroke-width:1"
         id="path1076" />
      <path
         d="m 268.8301,183.96841 c 1.10067,0 1.524,0.64909 1.524,2.34242 v 6.82978 c 0,1.15713 -0.31035,1.524 -1.35466,1.60867 v 0.67733 h 6.60399 v -0.67733 c -0.98778,-0.11298 -1.32645,-0.53621 -1.32645,-1.60867 v -7.53533 c 0,-0.31035 1.29824,-1.63687 2.39891,-1.63687 1.07246,0 1.49579,0.67733 1.49579,2.34242 v 6.82978 c 0,1.18534 -0.31035,1.524 -1.38291,1.60867 v 0.67733 h 6.71691 v -0.67733 c -1.10067,-0.0565 -1.41113,-0.39509 -1.41113,-1.60867 v -7.08378 c 0,-2.42709 -1.49578,-3.97933 -3.80999,-3.97933 -1.60867,0 -2.68113,0.64912 -4.14867,2.45533 -0.84667,-1.778 -1.83445,-2.45533 -3.61245,-2.45533 -1.778,0 -3.07621,0.762 -4.14867,2.45533 v -2.11667 h -5.33399 v 0.67734 c 1.24178,0.16947 1.49578,0.508 1.49578,1.66512 v 8.29733 c 0,1.15712 -0.25386,1.46758 -1.49578,1.69333 v 0.67733 h 6.71687 v -0.67733 c -0.98776,-0.14123 -1.29821,-0.53621 -1.29821,-1.60867 v -7.53533 c 0,-0.33859 1.24179,-1.63687 2.37066,-1.63687 z"
         style="font-style:normal;font-variant:normal;font-weight:bold;font-stretch:normal;font-size:8.19334px;line-height:1.25;font-family:FreeSerif;-inkscape-font-specification:'FreeSerif Bold';letter-spacing:0px;word-spacing:0px;white-space:pre;opacity:0.997;fill:#000000;fill-opacity:1;stroke:none;stroke-width:1"
         id="path1078" />
      <path
         d="m 290.10964,182.41616 h -5.41867 v 0.67734 c 1.24179,0.25386 1.49579,0.508 1.49579,1.66512 v 8.29733 c 0,1.15712 -0.19771,1.38291 -1.49579,1.69333 v 0.67733 h 6.80154 v -0.67733 c -0.98775,-0.14123 -1.38287,-0.53621 -1.38287,-1.60867 z m -1.97555,-6.49112 c -1.21357,0 -2.20133,0.98779 -2.20133,2.17313 0,1.27 0.93134,2.20133 2.17309,2.20133 1.24179,0 2.20133,-0.93133 2.20133,-2.17312 0,-1.21355 -0.95954,-2.20134 -2.17309,-2.20134 z"
         style="font-style:normal;font-variant:normal;font-weight:bold;font-stretch:normal;font-size:8.19334px;line-height:1.25;font-family:FreeSerif;-inkscape-font-specification:'FreeSerif Bold';letter-spacing:0px;word-spacing:0px;white-space:pre;opacity:0.997;fill:#000000;fill-opacity:1;stroke:none;stroke-width:1"
         id="path1080" />
      <path
         d="m 298.09651,176.34838 h -5.41866 v 0.67733 c 0.98779,0.0847 1.49579,0.59267 1.49579,1.63691 v 14.39333 c 0,1.04424 -0.53625,1.60866 -1.49579,1.69333 v 0.67733 h 6.80154 v -0.67733 c -0.93133,-0.0276 -1.38288,-0.56442 -1.38288,-1.69333 z"
         style="font-style:normal;font-variant:normal;font-weight:bold;font-stretch:normal;font-size:8.19334px;line-height:1.25;font-family:FreeSerif;-inkscape-font-specification:'FreeSerif Bold';letter-spacing:0px;word-spacing:0px;white-space:pre;opacity:0.997;fill:#000000;fill-opacity:1;stroke:none;stroke-width:1"
         id="path1082" />
      <path
         d="m 306.08338,182.41616 h -5.41869 v 0.67734 c 1.24178,0.25386 1.49578,0.508 1.49578,1.66512 v 8.29733 c 0,1.15712 -0.19737,1.38291 -1.49578,1.69333 v 0.67733 h 6.80157 v -0.67733 c -0.98779,-0.14123 -1.38288,-0.53621 -1.38288,-1.60867 z m -1.97557,-6.49112 c -1.21355,0 -2.20134,0.98779 -2.20134,2.17313 0,1.27 0.93134,2.20133 2.17313,2.20133 1.24178,0 2.20133,-0.93133 2.20133,-2.17312 0,-1.21355 -0.95955,-2.20134 -2.17312,-2.20134 z"
         style="font-style:normal;font-variant:normal;font-weight:bold;font-stretch:normal;font-size:8.19334px;line-height:1.25;font-family:FreeSerif;-inkscape-font-specification:'FreeSerif Bold';letter-spacing:0px;word-spacing:0px;white-space:pre;opacity:0.997;fill:#000000;fill-opacity:1;stroke:none;stroke-width:1"
         id="path1084" />
      <path
         d="m 312.01001,184.02483 c 0,-0.59267 0.79021,-1.04421 1.778,-1.04421 1.63688,0 2.37067,0.762 2.37067,2.48354 v 2.06025 c -3.27379,0.98775 -7.59179,2.11666 -7.59179,5.30578 0,1.72155 1.32646,2.99155 3.13267,2.99155 1.60866,0 2.90691,-0.56446 4.45912,-1.97555 0.31035,1.43934 0.93133,1.97555 2.31421,1.97555 1.21358,0 2.08845,-0.45155 3.16091,-1.60867 l -0.42333,-0.59267 -0.28211,0.28211 c -0.0847,0.0847 -0.16947,0.11298 -0.31035,0.11298 -0.39513,0 -0.59267,-0.25386 -0.59267,-0.70558 v -7.36599 c 0,-2.37067 -2.14491,-3.86646 -5.588,-3.86646 -3.18912,0 -5.334,1.43934 -5.334,3.556 0,1.15712 0.67734,1.86267 1.83443,1.86267 1.12891,0 1.91912,-0.67734 1.91912,-1.63688 0,-0.84667 -0.84667,-1.43933 -0.84667,-1.83445 z m 4.12046,8.57957 c -0.762,0.87488 -1.32646,1.21355 -2.00379,1.21355 -0.84667,0 -1.43933,-0.762 -1.43933,-1.89088 0,-1.63691 1.18533,-2.82224 3.44312,-3.41491 z"
         style="font-style:normal;font-variant:normal;font-weight:bold;font-stretch:normal;font-size:8.19334px;line-height:1.25;font-family:FreeSerif;-inkscape-font-specification:'FreeSerif Bold';letter-spacing:0px;word-spacing:0px;white-space:pre;opacity:0.997;fill:#000000;fill-opacity:1;stroke:none;stroke-width:1"
         id="path1086" />
      <path
         d="m 327.75794,176.34838 h -5.41867 v 0.67733 c 0.98776,0.0847 1.49576,0.59267 1.49576,1.63691 v 14.39333 c 0,1.04424 -0.53621,1.60866 -1.49576,1.69333 v 0.67733 h 6.80154 v -0.67733 c -0.93133,-0.0276 -1.38287,-0.56442 -1.38287,-1.69333 z"
         style="font-style:normal;font-variant:normal;font-weight:bold;font-stretch:normal;font-size:8.19334px;line-height:1.25;font-family:FreeSerif;-inkscape-font-specification:'FreeSerif Bold';letter-spacing:0px;word-spacing:0px;white-space:pre;opacity:0.997;fill:#000000;fill-opacity:1;stroke:none;stroke-width:1"
         id="path1088" />
      <path
         d="m 334.13611,188.51216 h 7.112 c -0.19772,-2.794 -1.016,-6.43466 -5.27755,-6.43466 -3.52778,0 -5.89845,2.794 -5.89845,6.91445 0,4.12045 2.31421,6.82979 5.81379,6.82979 2.286,0 3.66887,-0.90313 5.50333,-3.52779 l -0.67733,-0.39512 c -1.12888,1.38291 -2.00379,1.89091 -3.21734,1.89091 -2.85045,0 -3.24557,-3.18912 -3.35845,-5.27758 z m 3.64066,-1.46754 v 0.42333 h -3.78178 c 0.0847,-3.38666 0.59266,-4.51554 1.97557,-4.51554 1.63688,0 1.72155,1.66509 1.80621,4.09221 z"
         style="font-style:normal;font-variant:normal;font-weight:bold;font-stretch:normal;font-size:8.19334px;line-height:1.25;font-family:FreeSerif;-inkscape-font-specification:'FreeSerif Bold';letter-spacing:0px;word-spacing:0px;white-space:pre;opacity:0.997;fill:#000000;fill-opacity:1;stroke:none;stroke-width:1"
         id="path1090" />
    </g>
    <g
       id="g1128"
       transform="translate(-1.1176666,4.7050138)">
      <path
         d="m 239.39443,223.87309 c -1.72157,0 -2.25778,-0.36692 -2.25778,-1.58046 v -13.3209 c 0,-2.11667 0.39512,-2.48355 2.85045,-2.59642 v -0.70558 h -9.84957 v 0.70558 c 1.91912,0.11298 2.42712,0.56442 2.42712,2.00375 v 13.65957 c 0,1.43933 -0.36688,1.74979 -2.42712,2.00379 v 0.70554 h 16.31244 l 1.15713,-6.40645 h -0.81846 c -0.73375,1.72158 -1.86267,5.53158 -7.39421,5.53158 z"
         style="font-style:normal;font-variant:normal;font-weight:bold;font-stretch:normal;font-size:8.19334px;line-height:1.25;font-family:FreeSerif;-inkscape-font-specification:'FreeSerif Bold';letter-spacing:0px;word-spacing:0px;white-space:pre;opacity:0.997;fill:#000000;fill-opacity:1;stroke:none;stroke-width:1"
         id="path1092" />
      <path
         d="m 251.78397,213.34618 h 1.15709 c 0.93133,-4.064 1.24179,-5.588 1.24179,-6.20888 0,-1.07245 -0.79021,-1.89091 -1.83446,-1.89091 -1.07242,0 -1.80621,0.79025 -1.80621,2.00379 0,1.04421 0.93134,4.826 1.24179,6.096 z"
         style="font-style:normal;font-variant:normal;font-weight:bold;font-stretch:normal;font-size:8.19334px;line-height:1.25;font-family:FreeSerif;-inkscape-font-specification:'FreeSerif Bold';letter-spacing:0px;word-spacing:0px;white-space:pre;opacity:0.997;fill:#000000;fill-opacity:1;stroke:none;stroke-width:1"
         id="path1094" />
      <path
         d="m 264.62509,213.28972 c 0.98775,0 1.46754,0.762 1.46754,2.34246 v 6.82978 c 0,1.04421 -0.36688,1.49579 -1.32645,1.60867 v 0.67733 h 6.63224 v -0.67733 c -1.016,-0.0847 -1.38291,-0.508 -1.38291,-1.69333 v -6.99912 c 0,-2.42712 -1.49576,-3.97933 -3.81,-3.97933 -1.49576,0 -2.54,0.56445 -4.00754,2.20133 v -7.93045 h -5.41867 v 0.67733 c 1.29821,0.25386 1.49576,0.47979 1.49576,1.63691 v 14.39333 c 0,1.18533 -0.22562,1.43933 -1.49576,1.69333 v 0.67733 h 6.80154 v -0.67733 c -1.04421,-0.14123 -1.38287,-0.56446 -1.38287,-1.60867 v -7.53533 c 0,-0.31035 1.24178,-1.63691 2.42712,-1.63691 z"
         style="font-style:normal;font-variant:normal;font-weight:bold;font-stretch:normal;font-size:8.19334px;line-height:1.25;font-family:FreeSerif;-inkscape-font-specification:'FreeSerif Bold';letter-spacing:0px;word-spacing:0px;white-space:pre;opacity:0.997;fill:#000000;fill-opacity:1;stroke:none;stroke-width:1"
         id="path1096" />
      <path
         d="m 281.47371,225.11484 c 1.21354,-0.42333 1.89088,-0.53621 3.72533,-0.73375 l 1.83446,-0.19772 v -0.64909 c -1.24179,-0.0565 -1.66512,-0.42333 -1.66512,-1.63691 v -10.15999 h -5.67267 v 0.67733 c 1.41112,0.11298 1.74979,0.45154 1.74979,1.66512 v 7.98687 c -0.93133,0.93134 -1.524,1.24179 -2.31424,1.24179 -1.15709,0 -1.58042,-0.56445 -1.58042,-2.00379 v -9.56732 h -5.4187 v 0.67733 c 1.15712,0.22596 1.49579,0.47979 1.49579,1.66512 v 7.112 c 0,2.48354 1.41112,3.95112 3.75357,3.95112 1.46755,0 2.45533,-0.45158 4.09221,-1.86267 z"
         style="font-style:normal;font-variant:normal;font-weight:bold;font-stretch:normal;font-size:8.19334px;line-height:1.25;font-family:FreeSerif;-inkscape-font-specification:'FreeSerif Bold';letter-spacing:0px;word-spacing:0px;white-space:pre;opacity:0.997;fill:#000000;fill-opacity:1;stroke:none;stroke-width:1"
         id="path1098" />
      <path
         d="m 293.35525,211.73751 h -5.41866 v 0.67734 c 1.24175,0.25386 1.49575,0.508 1.49575,1.66512 v 8.29733 c 0,1.15712 -0.19737,1.38287 -1.49575,1.69333 v 0.67733 h 6.80154 v -0.67733 c -0.98779,-0.14123 -1.38288,-0.53621 -1.38288,-1.60867 z m -1.97558,-6.49112 c -1.21354,0 -2.20133,0.98779 -2.20133,2.17313 0,1.26999 0.93133,2.20133 2.17312,2.20133 1.24179,0 2.20133,-0.93134 2.20133,-2.17312 0,-1.21355 -0.95954,-2.20134 -2.17312,-2.20134 z"
         style="font-style:normal;font-variant:normal;font-weight:bold;font-stretch:normal;font-size:8.19334px;line-height:1.25;font-family:FreeSerif;-inkscape-font-specification:'FreeSerif Bold';letter-spacing:0px;word-spacing:0px;white-space:pre;opacity:0.997;fill:#000000;fill-opacity:1;stroke:none;stroke-width:1"
         id="path1100" />
      <path
         d="m 301.34212,205.66973 h -5.41866 v 0.67733 c 0.98779,0.0847 1.49579,0.59267 1.49579,1.63691 v 14.39333 c 0,1.04421 -0.53625,1.60866 -1.49579,1.69333 v 0.67733 h 6.80154 v -0.67733 c -0.93133,-0.0276 -1.38288,-0.56446 -1.38288,-1.69333 z"
         style="font-style:normal;font-variant:normal;font-weight:bold;font-stretch:normal;font-size:8.19334px;line-height:1.25;font-family:FreeSerif;-inkscape-font-specification:'FreeSerif Bold';letter-spacing:0px;word-spacing:0px;white-space:pre;opacity:0.997;fill:#000000;fill-opacity:1;stroke:none;stroke-width:1"
         id="path1102" />
      <path
         d="m 309.15963,205.66973 h -5.41867 v 0.67733 c 0.98779,0.0847 1.49579,0.59267 1.49579,1.63691 v 14.39333 c 0,1.04421 -0.53624,1.60866 -1.49579,1.69333 v 0.67733 h 6.80158 v -0.67733 c -0.93133,-0.0276 -1.38291,-0.56446 -1.38291,-1.69333 z"
         style="font-style:normal;font-variant:normal;font-weight:bold;font-stretch:normal;font-size:8.19334px;line-height:1.25;font-family:FreeSerif;-inkscape-font-specification:'FreeSerif Bold';letter-spacing:0px;word-spacing:0px;white-space:pre;opacity:0.997;fill:#000000;fill-opacity:1;stroke:none;stroke-width:1"
         id="path1104" />
      <path
         d="m 317.1465,211.73751 h -5.4187 v 0.67734 c 1.24179,0.25386 1.49579,0.508 1.49579,1.66512 v 8.29733 c 0,1.15712 -0.19737,1.38287 -1.49579,1.69333 v 0.67733 h 6.80158 v -0.67733 c -0.98779,-0.14123 -1.38288,-0.53621 -1.38288,-1.60867 z m -1.97558,-6.49112 c -1.21354,0 -2.20133,0.98779 -2.20133,2.17313 0,1.26999 0.93133,2.20133 2.17312,2.20133 1.24179,0 2.20134,-0.93134 2.20134,-2.17312 0,-1.21355 -0.95955,-2.20134 -2.17313,-2.20134 z"
         style="font-style:normal;font-variant:normal;font-weight:bold;font-stretch:normal;font-size:8.19334px;line-height:1.25;font-family:FreeSerif;-inkscape-font-specification:'FreeSerif Bold';letter-spacing:0px;word-spacing:0px;white-space:pre;opacity:0.997;fill:#000000;fill-opacity:1;stroke:none;stroke-width:1"
         id="path1106" />
      <path
         d="m 323.69401,217.83351 h 7.11203 c -0.19772,-2.794 -1.016,-6.43466 -5.27758,-6.43466 -3.52778,0 -5.89845,2.794 -5.89845,6.91445 0,4.12045 2.31424,6.82978 5.81379,6.82978 2.286,0 3.66891,-0.90312 5.50333,-3.52778 l -0.67734,-0.39513 c -1.12887,1.38292 -2.00375,1.89092 -3.21733,1.89092 -2.85045,0 -3.24554,-3.18913 -3.35845,-5.27758 z m 3.6407,-1.46754 v 0.42333 h -3.78179 c 0.0847,-3.38667 0.59267,-4.51558 1.97554,-4.51558 1.63691,0 1.72158,1.66513 1.80625,4.09225 z"
         style="font-style:normal;font-variant:normal;font-weight:bold;font-stretch:normal;font-size:8.19334px;line-height:1.25;font-family:FreeSerif;-inkscape-font-specification:'FreeSerif Bold';letter-spacing:0px;word-spacing:0px;white-space:pre;opacity:0.997;fill:#000000;fill-opacity:1;stroke:none;stroke-width:1"
         id="path1108" />
      <path
         d="m 341.30463,215.49106 c 1.04425,0 1.778,-0.79022 1.778,-1.89088 0,-1.27 -0.95954,-2.20133 -2.286,-2.20133 -1.41109,0 -2.48354,0.762 -3.81,2.65287 v -2.31421 h -5.30575 v 0.67734 c 1.21354,0.16947 1.49576,0.53621 1.49576,1.66512 v 8.29733 c 0,1.15712 -0.25387,1.46754 -1.49576,1.69333 v 0.67733 h 7.47887 v -0.67733 c -1.72154,-0.11298 -2.0602,-0.47979 -2.0602,-2.22954 v -5.33404 c 0,-1.46754 0.79021,-2.68108 1.72154,-2.68108 0.59266,0 0.98779,1.66509 2.48354,1.66509 z"
         style="font-style:normal;font-variant:normal;font-weight:bold;font-stretch:normal;font-size:8.19334px;line-height:1.25;font-family:FreeSerif;-inkscape-font-specification:'FreeSerif Bold';letter-spacing:0px;word-spacing:0px;white-space:pre;opacity:0.997;fill:#000000;fill-opacity:1;stroke:none;stroke-width:1"
         id="path1110" />
    </g>
  </g>
</svg>
